<svg width="127" height="37" viewBox="0 0 127 37" fill="none"
    xmlns="http://www.w3.org/2000/svg">
    <path d="M13.1689 5C20.0496 5 18.7752 12.0692 18.7752 20.7895C18.7752 29.5098 20.0496 36.5789 13.1689 36.5789C6.2883 36.5789 0.710449 29.5098 0.710449 20.7895C0.710449 12.0692 6.2883 5 13.1689 5Z" fill="white"/>
    <path d="M22.4097 31.5789C15.5291 31.5789 16.8034 24.5098 16.8034 15.7895C16.8034 7.06919 15.5291 0 22.4097 0C29.2903 0 34.8682 7.06919 34.8682 15.7895C34.8682 24.5098 29.2903 31.5789 22.4097 31.5789Z" fill="white"/>
    <path d="M41.7578 24V12.9474H44.1578L47.6788 19.9579L51.1525 12.9474H53.5525V24H51.5315V16.3737L48.4525 22.4211H46.8578L43.7788 16.3737V24H41.7578ZM60.8206 24.1895C59.7048 24.1895 58.7469 23.9526 57.9469 23.4789C57.1469 22.9947 56.5311 22.3263 56.0995 21.4737C55.668 20.6105 55.4522 19.6158 55.4522 18.4895C55.4522 17.3632 55.668 16.3684 56.0995 15.5053C56.5311 14.6421 57.1469 13.9684 57.9469 13.4842C58.7469 13 59.7048 12.7579 60.8206 12.7579C62.1469 12.7579 63.2311 13.0895 64.0732 13.7526C64.9259 14.4053 65.4574 15.3263 65.668 16.5158H63.4416C63.3048 15.9158 63.0101 15.4474 62.5574 15.1105C62.1153 14.7632 61.5259 14.5895 60.789 14.5895C59.768 14.5895 58.968 14.9368 58.389 15.6316C57.8101 16.3263 57.5206 17.2789 57.5206 18.4895C57.5206 19.7 57.8101 20.6526 58.389 21.3474C58.968 22.0316 59.768 22.3737 60.789 22.3737C61.5259 22.3737 62.1153 22.2158 62.5574 21.9C63.0101 21.5737 63.3048 21.1263 63.4416 20.5579H65.668C65.4574 21.6947 64.9259 22.5842 64.0732 23.2263C63.2311 23.8684 62.1469 24.1895 60.8206 24.1895ZM71.2859 24.1895C70.528 24.1895 69.8438 24.0158 69.2333 23.6684C68.6333 23.3211 68.1544 22.8421 67.7965 22.2316C67.4491 21.6105 67.2754 20.8947 67.2754 20.0842C67.2754 19.2737 67.4544 18.5632 67.8122 17.9526C68.1701 17.3316 68.6491 16.8474 69.2491 16.5C69.8596 16.1526 70.5438 15.9789 71.3017 15.9789C72.0491 15.9789 72.7228 16.1526 73.3228 16.5C73.9333 16.8474 74.4122 17.3316 74.7596 17.9526C75.1175 18.5632 75.2965 19.2737 75.2965 20.0842C75.2965 20.8947 75.1175 21.6105 74.7596 22.2316C74.4122 22.8421 73.9333 23.3211 73.3228 23.6684C72.7122 24.0158 72.0333 24.1895 71.2859 24.1895ZM71.2859 22.4368C71.8122 22.4368 72.2701 22.2421 72.6596 21.8526C73.0491 21.4526 73.2438 20.8632 73.2438 20.0842C73.2438 19.3053 73.0491 18.7211 72.6596 18.3316C72.2701 17.9316 71.8175 17.7316 71.3017 17.7316C70.7649 17.7316 70.3017 17.9316 69.9122 18.3316C69.5333 18.7211 69.3438 19.3053 69.3438 20.0842C69.3438 20.8632 69.5333 21.4526 69.9122 21.8526C70.3017 22.2421 70.7596 22.4368 71.2859 22.4368ZM77.2219 24V12.6316H79.243V24H77.2219ZM81.4265 24V12.6316H83.4475V24H81.4265ZM89.4363 24.1895C88.6468 24.1895 87.9468 24.0211 87.3363 23.6842C86.7258 23.3474 86.2468 22.8737 85.8995 22.2632C85.5521 21.6526 85.3784 20.9474 85.3784 20.1474C85.3784 19.3368 85.5468 18.6158 85.8837 17.9842C86.231 17.3526 86.7047 16.8632 87.3047 16.5158C87.9153 16.1579 88.631 15.9789 89.4521 15.9789C90.2205 15.9789 90.8995 16.1474 91.4889 16.4842C92.0784 16.8211 92.5363 17.2842 92.8626 17.8737C93.1995 18.4526 93.3679 19.1 93.3679 19.8158C93.3679 19.9316 93.3626 20.0526 93.3521 20.1789C93.3521 20.3053 93.3468 20.4368 93.3363 20.5737H87.3837C87.4258 21.1842 87.6363 21.6632 88.0153 22.0105C88.4047 22.3579 88.8731 22.5316 89.4205 22.5316C89.831 22.5316 90.1731 22.4421 90.4468 22.2632C90.731 22.0737 90.9416 21.8316 91.0784 21.5368H93.131C92.9837 22.0316 92.7363 22.4842 92.3889 22.8947C92.0521 23.2947 91.631 23.6105 91.1258 23.8421C90.631 24.0737 90.0679 24.1895 89.4363 24.1895ZM89.4521 17.6211C88.9574 17.6211 88.5205 17.7632 88.1416 18.0474C87.7626 18.3211 87.5205 18.7421 87.4153 19.3105H91.3153C91.2837 18.7947 91.0942 18.3842 90.7468 18.0789C90.3995 17.7737 89.9679 17.6211 89.4521 17.6211ZM99.023 24.1895C98.223 24.1895 97.5177 24.0158 96.9072 23.6684C96.2967 23.3211 95.8125 22.8368 95.4546 22.2158C95.1072 21.5947 94.9335 20.8842 94.9335 20.0842C94.9335 19.2842 95.1072 18.5737 95.4546 17.9526C95.8125 17.3316 96.2967 16.8474 96.9072 16.5C97.5177 16.1526 98.223 15.9789 99.023 15.9789C100.023 15.9789 100.865 16.2421 101.549 16.7684C102.234 17.2842 102.67 18 102.86 18.9158H100.728C100.623 18.5368 100.412 18.2421 100.097 18.0316C99.7914 17.8105 99.4282 17.7 99.0072 17.7C98.4493 17.7 97.9756 17.9105 97.5861 18.3316C97.1967 18.7526 97.0019 19.3368 97.0019 20.0842C97.0019 20.8316 97.1967 21.4158 97.5861 21.8368C97.9756 22.2579 98.4493 22.4684 99.0072 22.4684C99.4282 22.4684 99.7914 22.3632 100.097 22.1526C100.412 21.9421 100.623 21.6421 100.728 21.2526H102.86C102.67 22.1368 102.234 22.8474 101.549 23.3842C100.865 23.9211 100.023 24.1895 99.023 24.1895ZM108.154 24C107.333 24 106.675 23.8 106.18 23.4C105.685 23 105.438 22.2895 105.438 21.2684V17.8579H104.096V16.1684H105.438L105.675 14.0684H107.459V16.1684H109.575V17.8579H107.459V21.2842C107.459 21.6632 107.538 21.9263 107.696 22.0737C107.864 22.2105 108.148 22.2789 108.548 22.2789H109.527V24H108.154ZM114.986 24.1895C114.228 24.1895 113.544 24.0158 112.933 23.6684C112.333 23.3211 111.854 22.8421 111.496 22.2316C111.149 21.6105 110.975 20.8947 110.975 20.0842C110.975 19.2737 111.154 18.5632 111.512 17.9526C111.87 17.3316 112.349 16.8474 112.949 16.5C113.559 16.1526 114.244 15.9789 115.002 15.9789C115.749 15.9789 116.423 16.1526 117.023 16.5C117.633 16.8474 118.112 17.3316 118.459 17.9526C118.817 18.5632 118.996 19.2737 118.996 20.0842C118.996 20.8947 118.817 21.6105 118.459 22.2316C118.112 22.8421 117.633 23.3211 117.023 23.6684C116.412 24.0158 115.733 24.1895 114.986 24.1895ZM114.986 22.4368C115.512 22.4368 115.97 22.2421 116.359 21.8526C116.749 21.4526 116.944 20.8632 116.944 20.0842C116.944 19.3053 116.749 18.7211 116.359 18.3316C115.97 17.9316 115.517 17.7316 115.002 17.7316C114.465 17.7316 114.002 17.9316 113.612 18.3316C113.233 18.7211 113.044 19.3053 113.044 20.0842C113.044 20.8632 113.233 21.4526 113.612 21.8526C114.002 22.2421 114.459 22.4368 114.986 22.4368ZM120.922 24V16.1684H122.722L122.911 17.6368C123.195 17.1316 123.58 16.7316 124.064 16.4368C124.559 16.1316 125.138 15.9789 125.801 15.9789V18.1105H125.232C124.79 18.1105 124.395 18.1789 124.048 18.3158C123.701 18.4526 123.427 18.6895 123.227 19.0263C123.038 19.3632 122.943 19.8316 122.943 20.4316V24H120.922Z" fill="white"/>
</svg>
